<svg xmlns="http://www.w3.org/2000/svg" viewBox="0 0 1572.67 436.38"><defs><style>.cls-1,.cls-2,.cls-5{fill:#fff;}.cls-1{stroke:#a2c037;stroke-width:14.84px;}.cls-1,.cls-2,.cls-5,.cls-6{stroke-miterlimit:10;}.cls-2,.cls-5{stroke:#4e4e56;}.cls-2{stroke-width:18.13px;}.cls-3{fill:#4e4e56;}.cls-4,.cls-7{fill:#a1bf38;}.cls-5,.cls-6{stroke-width:11.54px;}.cls-6{fill:none;stroke:#fff;stroke-linecap:round;}.cls-7{font-size:145.06px;font-family:OpenSans-Bold, Open Sans;font-weight:700;}.cls-8{fill:#6f6f6e;}.cls-9{fill:#a2c037;}</style></defs><title>ser-logo</title><g id="logo-SER"><rect class="cls-1" x="198.16" y="7.42" width="274.11" height="274.11" rx="27.74" ry="27.74"/><rect class="cls-2" x="52.37" y="61.04" width="366.27" height="366.27" rx="33.9" ry="33.9"/><rect class="cls-3" x="123.42" y="241.99" width="34.34" height="147.56"/><rect class="cls-4" x="171.49" y="225.67" width="34.33" height="163.89"/><rect class="cls-3" x="219.56" y="281.32" width="34.33" height="108.24"/><rect class="cls-3" x="267.62" y="310.82" width="34.34" height="78.74"/><rect class="cls-3" x="317.59" y="258.89" width="32.96" height="131.04"/><rect class="cls-5" x="5.77" y="111.91" width="229.13" height="98.3" rx="15.01" ry="15.01"/><polyline class="cls-6" points="87.54 335.52 144.77 318.71 189.63 298.74 234.49 337.07 279.36 350.83 324.2 323.87 378.62 314.09"/><path class="cls-3" d="M127.42,200.26H110.64l-6-11.06a47.53,47.53,0,0,1-2.28-4.92h-.18a45.28,45.28,0,0,1-2.28,4.92l-6,11.06h-16l13.86-22.83L78.73,156.88H95.5l5.11,9.31a47.53,47.53,0,0,1,2.28,4.92h.18a45.28,45.28,0,0,1,2.28-4.92l5.11-9.31h16l-13,20.55Z" transform="translate(-15.13 -12.93)"/><rect class="cls-3" x="117.97" y="126.56" width="15.41" height="60.77"/><path class="cls-3" d="M178.24,201.58c-11.48,0-19.14-5.54-22.24-12.74l12.4-3.51a11.07,11.07,0,0,0,9.84,6.5c3.65,0,5.47-1.41,5.47-3.51s-1.82-3.34-6.38-4.39L173,182.87c-6.57-1.58-15.14-4.56-15.14-13.7s8.75-13.61,19.33-13.61,17.32,5,19.79,10l-10.49,4.83c-1.82-3.68-6.2-5.26-9.3-5.26s-4.92.87-4.92,3,2.37,2.81,5.84,3.69l4.37,1.05c6.38,1.58,15.86,4.74,15.86,14.23s-8.75,14.49-20.06,14.49" transform="translate(-15.13 -12.93)"/><text class="cls-7" transform="translate(254.68 223.04)">R</text></g><g id="Ebene_2" data-name="Ebene 2"><path class="cls-8" d="M570,354.11v59.37H553.4V270.71h39.16q26.27,0,38.82,10.06T643.93,311q0,28.32-28.71,38.28L654,413.48H634.36l-34.57-59.37Zm0-14.26h22.75q17.58,0,25.79-7t8.2-20.95q0-14.16-8.35-20.41t-26.81-6.25H570Z" transform="translate(-15.13 -12.93)"/><path class="cls-8" d="M753,413.48H673.43V270.71H753v14.75H690v46h59.18V346.1H690v52.54h63Z" transform="translate(-15.13 -12.93)"/><path class="cls-8" d="M871.59,312.31q0,21.68-14.8,33.35t-42.33,11.67h-16.8v56.15h-16.6V270.71h37Q871.59,270.71,871.59,312.31Zm-73.93,30.76H812.6q22.08,0,31.94-7.13t9.86-22.85q0-14.16-9.28-21.09t-28.9-6.93H797.66Z" transform="translate(-15.13 -12.93)"/><path class="cls-8" d="M1021.8,341.9q0,34.28-17.34,53.91t-48.19,19.63q-31.54,0-48.68-19.29t-17.14-54.44q0-34.87,17.19-54.06t48.83-19.19q30.75,0,48,19.54T1021.8,341.9ZM908,341.9q0,29,12.35,44t35.89,15q23.73,0,35.84-14.95t12.11-44q0-28.8-12.06-43.7t-35.69-14.89q-23.75,0-36.09,15T908,341.9Z" transform="translate(-15.13 -12.93)"/><path class="cls-8" d="M1066.63,354.11v59.37H1050V270.71h39.16q26.28,0,38.82,10.06T1140.56,311q0,28.32-28.71,38.28l38.77,64.16H1131l-34.57-59.37Zm0-14.26h22.76q17.58,0,25.78-7t8.2-20.95q0-14.16-8.35-20.41t-26.8-6.25h-21.59Z" transform="translate(-15.13 -12.93)"/><path class="cls-8" d="M1214,413.48h-16.6v-128h-45.22V270.71h107v14.75H1214Z" transform="translate(-15.13 -12.93)"/><path class="cls-8" d="M1277.11,413.48V270.71h16.6V413.48Z" transform="translate(-15.13 -12.93)"/><path class="cls-8" d="M1440.8,413.48h-19l-78-119.82H1343q1.56,21.09,1.56,38.67v81.15h-15.33V270.71H1348l77.83,119.34h.78q-.2-2.64-.87-16.95t-.49-20.46V270.71h15.53Z" transform="translate(-15.13 -12.93)"/><path class="cls-8" d="M1539.25,338.68h48.53v69.43a156,156,0,0,1-23,5.47,175,175,0,0,1-27.14,1.86q-32.43,0-50.49-19.29t-18.07-54q0-22.28,8.94-39a60.38,60.38,0,0,1,25.73-25.58q16.8-8.83,39.35-8.84a107.52,107.52,0,0,1,42.58,8.4l-6.44,14.65q-19.34-8.2-37.21-8.21-26.07,0-40.72,15.53t-14.65,43.07q0,28.9,14.11,43.84t41.46,14.95a123.1,123.1,0,0,0,29-3.42v-44h-31.93Z" transform="translate(-15.13 -12.93)"/><path class="cls-9" d="M639.74,170.86q0,19.32-14,30.13t-38,10.81q-26,0-40-6.71V188.68a106.18,106.18,0,0,0,19.62,6,103.05,103.05,0,0,0,21,2.2q17,0,25.63-6.45t8.6-18q0-7.61-3-12.46t-10.21-9q-7.15-4.11-21.77-9.31-20.41-7.3-29.18-17.32t-8.76-26.12q0-16.92,12.72-26.93t33.63-10a99.08,99.08,0,0,1,40.14,8l-5.31,14.81q-18.12-7.61-35.23-7.6-13.51,0-21.12,5.8t-7.61,16.12q0,7.61,2.8,12.46t9.46,8.91q6.66,4,20.37,9,23,8.2,31.68,17.62T639.74,170.86Z" transform="translate(-15.13 -12.93)"/><path class="cls-9" d="M709.82,211.8q-24.32,0-38.38-14.82t-14.07-41.14q0-26.52,13.06-42.14t35.09-15.61q20.61,0,32.63,13.56t12,35.79V158H674.59q.49,19.32,9.76,29.32t26.07,10a88.34,88.34,0,0,0,35-7.4v14.81a87.53,87.53,0,0,1-16.67,5.46A93.76,93.76,0,0,1,709.82,211.8Zm-4.5-99.8q-13.22,0-21.07,8.61T675,144.43h57.35q0-15.7-7-24.07T705.32,112Z" transform="translate(-15.13 -12.93)"/><path class="cls-9" d="M849.87,209.8v-71q0-13.41-6.1-20t-19.12-6.61q-17.22,0-25.23,9.31t-8,30.73V209.8H774.8V100.09h13.51l2.71,15h.8a33.93,33.93,0,0,1,14.31-12.56,46.5,46.5,0,0,1,20.52-4.45q19.82,0,29.83,9.56t10,30.58V209.8Z" transform="translate(-15.13 -12.93)"/><path class="cls-9" d="M967.7,179.87q0,15.31-11.41,23.62t-32,8.31q-21.82,0-34-6.91V189.48a82.16,82.16,0,0,0,17,6.3,70.63,70.63,0,0,0,17.47,2.31q13,0,20-4.16t7-12.66q0-6.41-5.56-11t-21.67-10.76q-15.32-5.72-21.77-10a29.74,29.74,0,0,1-9.61-9.66A25.21,25.21,0,0,1,889.92,127a24.6,24.6,0,0,1,10.92-21.17q10.9-7.77,29.92-7.76a87.65,87.65,0,0,1,34.64,7.2l-5.91,13.52Q943,112,929.56,112q-11.8,0-17.81,3.71c-4,2.46-6,5.87-6,10.2a12.45,12.45,0,0,0,2.25,7.51,22.2,22.2,0,0,0,7.26,5.91q5,2.8,19.22,8.11,19.51,7.09,26.37,14.31T967.7,179.87Z" transform="translate(-15.13 -12.93)"/><path class="cls-9" d="M1037.38,211.8q-24.32,0-38.38-14.82t-14.07-41.14q0-26.52,13.06-42.14t35.09-15.61q20.61,0,32.63,13.56t12,35.79V158h-75.57q.5,19.32,9.76,29.32t26.07,10a88.34,88.34,0,0,0,35-7.4v14.81a87.76,87.76,0,0,1-16.67,5.46A93.76,93.76,0,0,1,1037.38,211.8Zm-4.5-99.8q-13.22,0-21.07,8.61t-9.26,23.82h57.35q0-15.7-7-24.07T1032.88,112Z" transform="translate(-15.13 -12.93)"/><path class="cls-9" d="M1236,209.8h-81.58V63.45H1236V78.57h-64.56v47.14h60.66v15h-60.66v53.85H1236Z" transform="translate(-15.13 -12.93)"/><path class="cls-9" d="M1288.67,153.64l-38.14-53.55h18.92l28.93,42,28.83-42h18.71l-38.13,53.55,40.14,56.16h-18.82l-30.73-44.45-31,44.45h-18.82Z" transform="translate(-15.13 -12.93)"/><path class="cls-9" d="M1409.8,211.8q-23.82,0-36.89-14.67t-13.06-41.49q0-27.52,13.26-42.54t37.79-15a75.39,75.39,0,0,1,15.82,1.7,52.1,52.1,0,0,1,12.41,4L1434,117.91a78.07,78.07,0,0,0-12-3.66,54.09,54.09,0,0,0-11.51-1.45q-33.43,0-33.43,42.64,0,20.22,8.16,31t24.17,10.81a73.87,73.87,0,0,0,28.13-5.9v14.71Q1426.52,211.81,1409.8,211.8Z" transform="translate(-15.13 -12.93)"/><path class="cls-9" d="M1506.21,211.8q-24.33,0-38.39-14.82t-14.06-41.14q0-26.52,13.06-42.14t35.08-15.61q20.63,0,32.64,13.56t12,35.79V158H1471q.51,19.32,9.76,29.32t26.08,10a88.29,88.29,0,0,0,35-7.4v14.81a87.68,87.68,0,0,1-16.66,5.46A93.83,93.83,0,0,1,1506.21,211.8ZM1501.7,112q-13.21,0-21.07,8.61t-9.26,23.82h57.36q0-15.7-7-24.07T1501.7,112Z" transform="translate(-15.13 -12.93)"/><path class="cls-9" d="M1587.8,209.8h-16.62V54h16.62Z" transform="translate(-15.13 -12.93)"/></g></svg>