<svg id="logo-SER" xmlns="http://www.w3.org/2000/svg" viewBox="0 0 479.69 436.38"><defs><style>.cls-1,.cls-2,.cls-5{fill:#fff;}.cls-1{stroke:#a2c037;stroke-width:14.84px;}.cls-1,.cls-2,.cls-5,.cls-6{stroke-miterlimit:10;}.cls-2,.cls-5{stroke:#4e4e56;}.cls-2{stroke-width:18.13px;}.cls-3{fill:#4e4e56;}.cls-4{fill:#a1bf38;}.cls-5,.cls-6{stroke-width:11.54px;}.cls-6{fill:none;stroke:#fff;stroke-linecap:round;}</style></defs><title>top-header-logo-ser</title><rect class="cls-1" x="198.16" y="7.42" width="274.11" height="274.11" rx="27.74" ry="27.74"/><rect class="cls-2" x="52.37" y="61.04" width="366.27" height="366.27" rx="33.9" ry="33.9"/><rect class="cls-3" x="123.42" y="241.99" width="34.34" height="147.56"/><rect class="cls-4" x="171.49" y="225.67" width="34.33" height="163.89"/><rect class="cls-3" x="219.56" y="281.32" width="34.33" height="108.24"/><rect class="cls-3" x="267.62" y="310.82" width="34.34" height="78.74"/><rect class="cls-3" x="317.59" y="258.89" width="32.96" height="131.04"/><rect class="cls-5" x="5.77" y="111.91" width="229.13" height="98.3" rx="15.01" ry="15.01"/><polyline class="cls-6" points="87.54 335.52 144.77 318.71 189.63 298.74 234.49 337.07 279.36 350.83 324.2 323.87 378.62 314.09"/><path class="cls-3" d="M115.52,211.3H98.74l-6-11.06a45.28,45.28,0,0,1-2.28-4.92h-.19A45.28,45.28,0,0,1,88,200.24L82,211.3h-16l13.86-22.83-13-20.55H83.6l5.11,9.31A45.55,45.55,0,0,1,91,182.14h.18a47.84,47.84,0,0,1,2.28-4.91l5.11-9.31h16l-13,20.55Z" transform="translate(-3.23 -23.97)"/><rect class="cls-3" x="117.97" y="126.56" width="15.41" height="60.77"/><path class="cls-3" d="M166.35,212.61c-11.49,0-19.15-5.53-22.25-12.73l12.4-3.51a11.07,11.07,0,0,0,9.85,6.5c3.64,0,5.47-1.41,5.47-3.51S170,196,165.43,195l-4.37-1.06c-6.56-1.58-15.14-4.56-15.14-13.7s8.76-13.61,19.34-13.61,17.32,5,19.78,10l-10.49,4.83c-1.82-3.69-6.2-5.27-9.29-5.27s-4.93.88-4.93,3,2.37,2.81,5.84,3.69l4.37,1.05c6.39,1.58,15.87,4.74,15.87,14.23s-8.76,14.48-20.06,14.48" transform="translate(-3.23 -23.97)"/><path class="cls-4" d="M292.9,207.27V247h-22V143.45h30.18q21.11,0,31.23,7.68t10.13,23.34a27.52,27.52,0,0,1-5,16.26,33.28,33.28,0,0,1-14.24,11.15Q346.6,236.8,353.67,247H329.31l-24.72-39.73Zm0-17.85H300q10.41,0,15.37-3.47t5-10.91q0-7.36-5.06-10.48t-15.69-3.12H292.9Z" transform="translate(-3.23 -23.97)"/></svg>